<?xml version="1.0" encoding="UTF-8" standalone="no"?>
<!-- Created with Inkscape (http://www.inkscape.org/) -->

<svg
   width="6.0236311mm"
   height="6.0255289mm"
   viewBox="0 0 6.0236311 6.0255289"
   version="1.1"
   id="svg1"
   xml:space="preserve"
   xmlns:inkscape="http://www.inkscape.org/namespaces/inkscape"
   xmlns:sodipodi="http://sodipodi.sourceforge.net/DTD/sodipodi-0.dtd"
   xmlns="http://www.w3.org/2000/svg"
   xmlns:svg="http://www.w3.org/2000/svg"><sodipodi:namedview
     id="namedview1"
     pagecolor="#ffffff"
     bordercolor="#000000"
     borderopacity="0.25"
     inkscape:showpageshadow="2"
     inkscape:pageopacity="0.0"
     inkscape:pagecheckerboard="0"
     inkscape:deskcolor="#d1d1d1"
     inkscape:document-units="mm" /><defs
     id="defs1" /><g
     inkscape:label="Layer 1"
     inkscape:groupmode="layer"
     id="layer1"
     transform="translate(-86.910036,-93.51917)"><g
       id="g2"
       transform="matrix(0.04027453,0,0,0.04027453,86.899802,93.513792)"><path
         d="M 67,0.55 C 40.648,3.3 17.102,20.649 6.398,45.2 -0.5,61.05 -1.648,79.3 3.25,96.101 c 6.05,20.949 21.7,38.648 41.95,47.5 15.85,6.898 34.1,8.046 50.902,3.148 25.148,-7.25 44.949,-27.898 51.449,-53.55 C 157.699,53 132.8,11.897 92.5,2.3 83.648,0.2 75.852,-0.351 67,0.55 Z M 68,47 c 6.398,8.5 11.8,15.5 12,15.5 0.2,0 6.852,-7 14.7,-15.5 l 14.35,-15.5 h 8.15 l -1.75,1.852 C 114.45,34.398 107.95,41.449 101,49 94.05,56.55 87.25,63.898 85.898,65.25 L 83.5,67.8 102.25,92.75 c 10.3,13.75 18.75,25.148 18.75,25.352 0,0.25 -6.148,0.398 -13.602,0.398 l -13.648,-0.05 -12.7,-17 C 72.3,89.7 68.2,84.647 67.8,84.95 67.5,85.2 60.398,92.852 52,101.95 L 36.75,118.5 H 32.898 C 30.75,118.5 29,118.398 29,118.25 29,118.102 36.95,109.398 46.648,98.95 56.301,88.5 64.301,79.75 64.398,79.602 64.45,79.398 56.5,68.55 46.75,55.5 37,42.5 29,31.75 29,31.648 29,31.551 35.148,31.5 42.7,31.5 h 13.698 z m 0,0"
         style="fill:#000000;fill-opacity:1;fill-rule:nonzero;stroke:none"
         id="path1-8" /><path
         d="m 41.352,38.2 c 0.199,0.35 12.796,17.25 27.898,37.448 l 27.5,36.801 6.148,0.051 c 3.801,0 6.102,-0.2 6,-0.5 C 108.852,111.75 96.301,94.852 81.102,74.5 L 53.398,37.5 H 47.2 c -5.148,0 -6.199,0.102 -5.847,0.7 z m 0,0"
         style="fill:#000000;fill-opacity:1;fill-rule:nonzero;stroke:none"
         id="path2" /></g></g></svg>
